<svg width="471" height="47" viewBox="0 0 471 47" fill="none" xmlns="http://www.w3.org/2000/svg">
<g filter="url(#filter0_d_391_831)">
<path d="M28.312 40V5.68H32.92V40H28.312ZM9.448 40H4.84V5.68H9.448V40ZM8.968 24.256V20.224H28.792V24.256H8.968ZM66.7315 40.768C64.1395 40.768 61.7555 40.32 59.5795 39.424C57.4035 38.528 55.4995 37.28 53.8675 35.68C52.2355 34.048 50.9715 32.144 50.0755 29.968C49.1795 27.76 48.7315 25.376 48.7315 22.816C48.7315 20.256 49.1795 17.888 50.0755 15.712C50.9715 13.536 52.2355 11.648 53.8675 10.048C55.4995 8.416 57.4035 7.152 59.5795 6.256C61.7555 5.36 64.1395 4.912 66.7315 4.912C69.3235 4.912 71.7075 5.36 73.8835 6.256C76.0595 7.152 77.9635 8.416 79.5955 10.048C81.2275 11.648 82.4915 13.536 83.3875 15.712C84.2835 17.888 84.7315 20.256 84.7315 22.816C84.7315 25.376 84.2835 27.76 83.3875 29.968C82.4915 32.144 81.2275 34.048 79.5955 35.68C77.9635 37.28 76.0595 38.528 73.8835 39.424C71.7075 40.32 69.3235 40.768 66.7315 40.768ZM66.7315 36.64C69.3235 36.64 71.6115 36.048 73.5955 34.864C75.5795 33.68 77.1155 32.048 78.2035 29.968C79.3235 27.856 79.8835 25.472 79.8835 22.816C79.8835 20.16 79.3235 17.792 78.2035 15.712C77.1155 13.632 75.5795 12 73.5955 10.816C71.6115 9.632 69.3235 9.04 66.7315 9.04C64.1715 9.04 61.8835 9.632 59.8675 10.816C57.8835 12 56.3315 13.632 55.2115 15.712C54.1235 17.792 53.5795 20.16 53.5795 22.816C53.5795 25.472 54.1235 27.856 55.2115 29.968C56.3315 32.048 57.8835 33.68 59.8675 34.864C61.8835 36.048 64.1715 36.64 66.7315 36.64ZM105.12 40H100.512V5.68H114.048C116.384 5.68 118.416 6.096 120.144 6.928C121.872 7.76 123.216 8.912 124.176 10.384C125.168 11.856 125.664 13.584 125.664 15.568C125.664 17.552 125.168 19.28 124.176 20.752C123.216 22.224 121.872 23.376 120.144 24.208C118.416 25.04 116.384 25.456 114.048 25.456H104.64V21.472H114.048C116.192 21.472 117.872 20.96 119.088 19.936C120.336 18.88 120.96 17.424 120.96 15.568C120.96 13.712 120.336 12.272 119.088 11.248C117.872 10.192 116.192 9.664 114.048 9.664H105.12V40ZM129.072 40H123.264L110.4 24.016H115.776L129.072 40ZM147.823 40H143.215V5.68H147.823V40ZM188.822 40H163.19V35.968L182.678 9.712H163.814V5.68H188.198V9.712L168.71 35.968H188.822V40ZM220.763 40.768C218.171 40.768 215.787 40.32 213.611 39.424C211.435 38.528 209.531 37.28 207.899 35.68C206.267 34.048 205.003 32.144 204.107 29.968C203.211 27.76 202.763 25.376 202.763 22.816C202.763 20.256 203.211 17.888 204.107 15.712C205.003 13.536 206.267 11.648 207.899 10.048C209.531 8.416 211.435 7.152 213.611 6.256C215.787 5.36 218.171 4.912 220.763 4.912C223.355 4.912 225.739 5.36 227.915 6.256C230.091 7.152 231.995 8.416 233.627 10.048C235.259 11.648 236.523 13.536 237.419 15.712C238.315 17.888 238.763 20.256 238.763 22.816C238.763 25.376 238.315 27.76 237.419 29.968C236.523 32.144 235.259 34.048 233.627 35.68C231.995 37.28 230.091 38.528 227.915 39.424C225.739 40.32 223.355 40.768 220.763 40.768ZM220.763 36.64C223.355 36.64 225.643 36.048 227.627 34.864C229.611 33.68 231.147 32.048 232.235 29.968C233.355 27.856 233.915 25.472 233.915 22.816C233.915 20.16 233.355 17.792 232.235 15.712C231.147 13.632 229.611 12 227.627 10.816C225.643 9.632 223.355 9.04 220.763 9.04C218.203 9.04 215.915 9.632 213.899 10.816C211.915 12 210.363 13.632 209.243 15.712C208.155 17.792 207.611 20.16 207.611 22.816C207.611 25.472 208.155 27.856 209.243 29.968C210.363 32.048 211.915 33.68 213.899 34.864C215.915 36.048 218.203 36.64 220.763 36.64ZM258.959 40H254.495V5.68H259.439L279.503 35.248H278.207V5.68H282.671V40H277.727L257.615 10.432H258.959V40ZM322.803 40H318.339V5.68H323.283L343.347 35.248H342.051V5.68H346.515V40H341.571L321.459 10.432H322.803V40ZM380.185 40.768C377.593 40.768 375.209 40.32 373.033 39.424C370.857 38.528 368.953 37.28 367.321 35.68C365.689 34.048 364.425 32.144 363.529 29.968C362.633 27.76 362.185 25.376 362.185 22.816C362.185 20.256 362.633 17.888 363.529 15.712C364.425 13.536 365.689 11.648 367.321 10.048C368.953 8.416 370.857 7.152 373.033 6.256C375.209 5.36 377.593 4.912 380.185 4.912C382.777 4.912 385.161 5.36 387.337 6.256C389.513 7.152 391.417 8.416 393.049 10.048C394.681 11.648 395.945 13.536 396.841 15.712C397.737 17.888 398.185 20.256 398.185 22.816C398.185 25.376 397.737 27.76 396.841 29.968C395.945 32.144 394.681 34.048 393.049 35.68C391.417 37.28 389.513 38.528 387.337 39.424C385.161 40.32 382.777 40.768 380.185 40.768ZM380.185 36.64C382.777 36.64 385.065 36.048 387.049 34.864C389.033 33.68 390.569 32.048 391.657 29.968C392.777 27.856 393.337 25.472 393.337 22.816C393.337 20.16 392.777 17.792 391.657 15.712C390.569 13.632 389.033 12 387.049 10.816C385.065 9.632 382.777 9.04 380.185 9.04C377.625 9.04 375.337 9.632 373.321 10.816C371.337 12 369.785 13.632 368.665 15.712C367.577 17.792 367.033 20.16 367.033 22.816C367.033 25.472 367.577 27.856 368.665 29.968C369.785 32.048 371.337 33.68 373.321 34.864C375.337 36.048 377.625 36.64 380.185 36.64ZM418.573 40H413.965V5.68H418.573V40ZM440.276 40H435.668V5.68H449.204C451.54 5.68 453.572 6.096 455.3 6.928C457.028 7.76 458.372 8.912 459.332 10.384C460.324 11.856 460.82 13.584 460.82 15.568C460.82 17.552 460.324 19.28 459.332 20.752C458.372 22.224 457.028 23.376 455.3 24.208C453.572 25.04 451.54 25.456 449.204 25.456H439.796V21.472H449.204C451.348 21.472 453.028 20.96 454.244 19.936C455.492 18.88 456.116 17.424 456.116 15.568C456.116 13.712 455.492 12.272 454.244 11.248C453.028 10.192 451.348 9.664 449.204 9.664H440.276V40ZM464.228 40H458.42L445.556 24.016H450.932L464.228 40Z" fill="#D1A954"/>
</g>
<defs>
<filter id="filter0_d_391_831" x="0.840027" y="0.912003" width="469.388" height="45.856" filterUnits="userSpaceOnUse" color-interpolation-filters="sRGB">
<feFlood flood-opacity="0" result="BackgroundImageFix"/>
<feColorMatrix in="SourceAlpha" type="matrix" values="0 0 0 0 0 0 0 0 0 0 0 0 0 0 0 0 0 0 127 0" result="hardAlpha"/>
<feOffset dx="1" dy="1"/>
<feGaussianBlur stdDeviation="2.5"/>
<feComposite in2="hardAlpha" operator="out"/>
<feColorMatrix type="matrix" values="0 0 0 0 0.16244 0 0 0 0 0.16244 0 0 0 0 0.16244 0 0 0 1 0"/>
<feBlend mode="normal" in2="BackgroundImageFix" result="effect1_dropShadow_391_831"/>
<feBlend mode="normal" in="SourceGraphic" in2="effect1_dropShadow_391_831" result="shape"/>
</filter>
</defs>
</svg>
